<mxfile host="app.diagrams.net" modified="2023-09-17T20:35:24.395Z" agent="Mozilla/5.0 (Windows NT 10.0; Win64; x64) AppleWebKit/537.36 (KHTML, like Gecko) Chrome/117.0.0.0 Safari/537.36" etag="HVFwTGlxvjXoTzilpm_l" version="21.7.4" type="device">
  <diagram name="Página-1" id="JxGR9X0Lv18BJI9YgSd2">
    <mxGraphModel dx="2694" dy="2102" grid="1" gridSize="10" guides="1" tooltips="1" connect="1" arrows="1" fold="1" page="1" pageScale="1" pageWidth="827" pageHeight="1169" math="0" shadow="0">
      <root>
        <mxCell id="0" />
        <mxCell id="1" parent="0" />
        <mxCell id="75GIGfru5Hww3sVHzyNu-1" value="2. Se desea modelar la información necesaria para una red social.&lt;br&gt;&amp;nbsp;&lt;br&gt;La red social permite a los usuarios compartir imágenes de diferentes temáticas y realizar comentarios sobre las mismas. &lt;br&gt;&lt;br&gt;De los usuarios se registran: nombre y apellido, usuario en la red social (que es único), clave de acceso, cuentas de correo electrónico, dirección detallada y un teléfono de contacto.&lt;br&gt;&lt;br&gt;En la red social, los usuarios pueden subir imágenes, o bien comentar, descargar o compartir una publicación (imagen) de otros usuarios vinculados.&lt;br&gt;&lt;br&gt;Cuando dos usuarios se vinculan, se debe almacenar información de este vínculo: fecha y hora, tipo de vínculo y opcionalmente una descripción estandarizada en la red social que indica de donde se conocen (lugar de vínculo). En la misma fecha y hora el mismo usuario&lt;br&gt;no podrá generar dos vínculos.&lt;br&gt;&lt;br&gt;De las imágenes se debe almacenar: fecha y hora de publicación, temática de la imagen,&lt;br&gt;título, usuario que realiza el posteo y el nombre del archivo correspondiente, además de un&lt;br&gt;conjunto de palabras claves que caracterizan la imagen. &lt;br&gt;&lt;br&gt;Un usuario no puede subir dos imágenes con título idéntico. De las temáticas se registra un nombre único y una descripción asociada.&lt;br&gt;&lt;br&gt;De las imágenes se debe poder determinar los usuarios que compartieron la imagen o la&lt;br&gt;descargaron, indicando fecha y hora y si la compartió o descargó.&lt;br&gt;Así mismo, los usuarios pueden realizar comentarios en la red social, se debe almacenar&lt;br&gt;un texto, la fecha y hora de creación del comentario, que imagen comentó o a que&lt;br&gt;comentario respondió. &lt;br&gt;&lt;br&gt;Un comentario podría ser respuesta a otro comentario existente. Un usuario no podrá realizar dos comentarios en la misma fecha y hora." style="text;whiteSpace=wrap;html=1;" parent="1" vertex="1">
          <mxGeometry x="150" y="-280" width="520" height="370" as="geometry" />
        </mxCell>
        <mxCell id="75GIGfru5Hww3sVHzyNu-3" value="Usuarios" style="rounded=0;whiteSpace=wrap;html=1;" parent="1" vertex="1">
          <mxGeometry x="160" y="710" width="120" height="70" as="geometry" />
        </mxCell>
        <mxCell id="75GIGfru5Hww3sVHzyNu-4" value="" style="endArrow=none;html=1;rounded=0;entryX=0;entryY=0;entryDx=0;entryDy=0;exitX=1;exitY=1;exitDx=0;exitDy=0;" parent="1" source="75GIGfru5Hww3sVHzyNu-5" target="75GIGfru5Hww3sVHzyNu-3" edge="1">
          <mxGeometry width="50" height="50" relative="1" as="geometry">
            <mxPoint x="140" y="690" as="sourcePoint" />
            <mxPoint x="120" y="650" as="targetPoint" />
          </mxGeometry>
        </mxCell>
        <mxCell id="75GIGfru5Hww3sVHzyNu-5" value="" style="ellipse;whiteSpace=wrap;html=1;aspect=fixed;" parent="1" vertex="1">
          <mxGeometry x="120" y="670" width="20" height="20" as="geometry" />
        </mxCell>
        <mxCell id="75GIGfru5Hww3sVHzyNu-10" value="" style="endArrow=none;html=1;rounded=0;entryX=0.25;entryY=0;entryDx=0;entryDy=0;exitX=1;exitY=1;exitDx=0;exitDy=0;" parent="1" source="75GIGfru5Hww3sVHzyNu-11" target="75GIGfru5Hww3sVHzyNu-3" edge="1">
          <mxGeometry width="50" height="50" relative="1" as="geometry">
            <mxPoint x="270" y="620" as="sourcePoint" />
            <mxPoint x="220" y="680" as="targetPoint" />
          </mxGeometry>
        </mxCell>
        <mxCell id="75GIGfru5Hww3sVHzyNu-11" value="" style="ellipse;whiteSpace=wrap;html=1;aspect=fixed;rotation=15;" parent="1" vertex="1">
          <mxGeometry x="160" y="660" width="20" height="20" as="geometry" />
        </mxCell>
        <mxCell id="75GIGfru5Hww3sVHzyNu-17" value="" style="endArrow=none;html=1;rounded=0;entryX=0;entryY=0.25;entryDx=0;entryDy=0;exitX=0.875;exitY=0.283;exitDx=0;exitDy=0;exitPerimeter=0;" parent="1" source="75GIGfru5Hww3sVHzyNu-18" target="75GIGfru5Hww3sVHzyNu-3" edge="1">
          <mxGeometry width="50" height="50" relative="1" as="geometry">
            <mxPoint x="50" y="754" as="sourcePoint" />
            <mxPoint x="120" y="754" as="targetPoint" />
          </mxGeometry>
        </mxCell>
        <mxCell id="75GIGfru5Hww3sVHzyNu-18" value="" style="ellipse;whiteSpace=wrap;html=1;aspect=fixed;rotation=30;fillColor=#0A0A0A;" parent="1" vertex="1">
          <mxGeometry x="100" y="710" width="20" height="20" as="geometry" />
        </mxCell>
        <mxCell id="75GIGfru5Hww3sVHzyNu-21" value="" style="endArrow=none;html=1;rounded=0;entryX=0;entryY=0.5;entryDx=0;entryDy=0;exitX=1;exitY=0.5;exitDx=0;exitDy=0;" parent="1" source="75GIGfru5Hww3sVHzyNu-22" target="75GIGfru5Hww3sVHzyNu-3" edge="1">
          <mxGeometry width="50" height="50" relative="1" as="geometry">
            <mxPoint x="70" y="774" as="sourcePoint" />
            <mxPoint x="140" y="774" as="targetPoint" />
          </mxGeometry>
        </mxCell>
        <mxCell id="75GIGfru5Hww3sVHzyNu-22" value="" style="ellipse;whiteSpace=wrap;html=1;aspect=fixed;fillColor=#0F0F0F;" parent="1" vertex="1">
          <mxGeometry x="90" y="745" width="20" height="20" as="geometry" />
        </mxCell>
        <mxCell id="75GIGfru5Hww3sVHzyNu-23" value="Nombre" style="text;html=1;align=center;verticalAlign=middle;resizable=0;points=[];autosize=1;strokeColor=none;fillColor=none;" parent="1" vertex="1">
          <mxGeometry x="135" y="630" width="70" height="30" as="geometry" />
        </mxCell>
        <mxCell id="75GIGfru5Hww3sVHzyNu-24" value="Apellido" style="text;html=1;align=center;verticalAlign=middle;resizable=0;points=[];autosize=1;strokeColor=none;fillColor=none;" parent="1" vertex="1">
          <mxGeometry x="65" y="650" width="70" height="30" as="geometry" />
        </mxCell>
        <mxCell id="75GIGfru5Hww3sVHzyNu-25" value="Usuario 1,1" style="text;html=1;align=center;verticalAlign=middle;resizable=0;points=[];autosize=1;strokeColor=none;fillColor=none;" parent="1" vertex="1">
          <mxGeometry x="25" y="700" width="80" height="30" as="geometry" />
        </mxCell>
        <mxCell id="75GIGfru5Hww3sVHzyNu-26" value="Clave 1,1" style="text;html=1;align=center;verticalAlign=middle;resizable=0;points=[];autosize=1;strokeColor=none;fillColor=none;" parent="1" vertex="1">
          <mxGeometry x="25" y="745" width="70" height="30" as="geometry" />
        </mxCell>
        <mxCell id="75GIGfru5Hww3sVHzyNu-27" value="" style="endArrow=none;html=1;rounded=0;entryX=0;entryY=0.75;entryDx=0;entryDy=0;exitX=1;exitY=0.5;exitDx=0;exitDy=0;" parent="1" source="TSE4m4PHYhoKXWGL5z6S-139" target="75GIGfru5Hww3sVHzyNu-3" edge="1">
          <mxGeometry width="50" height="50" relative="1" as="geometry">
            <mxPoint x="-21.339745962155575" y="828" as="sourcePoint" />
            <mxPoint x="150" y="820" as="targetPoint" />
          </mxGeometry>
        </mxCell>
        <mxCell id="75GIGfru5Hww3sVHzyNu-30" value="" style="endArrow=none;html=1;rounded=0;exitX=0.728;exitY=0.989;exitDx=0;exitDy=0;entryX=0;entryY=1;entryDx=0;entryDy=0;exitPerimeter=0;" parent="1" source="TSE4m4PHYhoKXWGL5z6S-152" target="75GIGfru5Hww3sVHzyNu-3" edge="1">
          <mxGeometry width="50" height="50" relative="1" as="geometry">
            <mxPoint x="152" y="818" as="sourcePoint" />
            <mxPoint x="175" y="850" as="targetPoint" />
          </mxGeometry>
        </mxCell>
        <mxCell id="75GIGfru5Hww3sVHzyNu-49" value="" style="endArrow=none;html=1;rounded=0;entryX=0.25;entryY=1;entryDx=0;entryDy=0;exitX=1;exitY=1;exitDx=0;exitDy=0;" parent="1" source="75GIGfru5Hww3sVHzyNu-50" target="75GIGfru5Hww3sVHzyNu-3" edge="1">
          <mxGeometry width="50" height="50" relative="1" as="geometry">
            <mxPoint x="200" y="820" as="sourcePoint" />
            <mxPoint x="230" y="833" as="targetPoint" />
          </mxGeometry>
        </mxCell>
        <mxCell id="75GIGfru5Hww3sVHzyNu-50" value="" style="ellipse;whiteSpace=wrap;html=1;aspect=fixed;rotation=-225;direction=south;" parent="1" vertex="1">
          <mxGeometry x="185" y="813.5" width="20" height="20" as="geometry" />
        </mxCell>
        <mxCell id="75GIGfru5Hww3sVHzyNu-53" value="Telefono 1,N" style="text;html=1;align=center;verticalAlign=middle;resizable=0;points=[];autosize=1;strokeColor=none;fillColor=none;" parent="1" vertex="1">
          <mxGeometry x="175" y="838" width="90" height="30" as="geometry" />
        </mxCell>
        <mxCell id="75GIGfru5Hww3sVHzyNu-141" value="Imagenes" style="rounded=0;whiteSpace=wrap;html=1;" parent="1" vertex="1">
          <mxGeometry x="760" y="709.5" width="120" height="70" as="geometry" />
        </mxCell>
        <mxCell id="75GIGfru5Hww3sVHzyNu-142" value="" style="endArrow=none;html=1;rounded=0;entryX=1;entryY=0;entryDx=0;entryDy=0;exitX=0;exitY=1;exitDx=0;exitDy=0;" parent="1" source="75GIGfru5Hww3sVHzyNu-143" target="75GIGfru5Hww3sVHzyNu-141" edge="1">
          <mxGeometry width="50" height="50" relative="1" as="geometry">
            <mxPoint x="820" y="673.5" as="sourcePoint" />
            <mxPoint x="720" y="649.5" as="targetPoint" />
          </mxGeometry>
        </mxCell>
        <mxCell id="75GIGfru5Hww3sVHzyNu-143" value="" style="ellipse;whiteSpace=wrap;html=1;aspect=fixed;rotation=-30;" parent="1" vertex="1">
          <mxGeometry x="880" y="650" width="20" height="20" as="geometry" />
        </mxCell>
        <mxCell id="75GIGfru5Hww3sVHzyNu-148" value="" style="endArrow=none;html=1;rounded=0;entryX=0.25;entryY=0;entryDx=0;entryDy=0;exitX=1;exitY=0.5;exitDx=0;exitDy=0;" parent="1" source="75GIGfru5Hww3sVHzyNu-149" target="75GIGfru5Hww3sVHzyNu-141" edge="1">
          <mxGeometry width="50" height="50" relative="1" as="geometry">
            <mxPoint x="670" y="773.5" as="sourcePoint" />
            <mxPoint x="740" y="773.5" as="targetPoint" />
          </mxGeometry>
        </mxCell>
        <mxCell id="75GIGfru5Hww3sVHzyNu-149" value="" style="ellipse;whiteSpace=wrap;html=1;aspect=fixed;fillColor=#FFFFFF;rotation=60;" parent="1" vertex="1">
          <mxGeometry x="745" y="640" width="20" height="20" as="geometry" />
        </mxCell>
        <mxCell id="75GIGfru5Hww3sVHzyNu-151" value="Fecha y hora" style="text;html=1;align=center;verticalAlign=middle;resizable=0;points=[];autosize=1;strokeColor=none;fillColor=none;" parent="1" vertex="1">
          <mxGeometry x="705" y="610" width="90" height="30" as="geometry" />
        </mxCell>
        <mxCell id="75GIGfru5Hww3sVHzyNu-153" value="Palabras" style="text;html=1;align=center;verticalAlign=middle;resizable=0;points=[];autosize=1;strokeColor=none;fillColor=none;" parent="1" vertex="1">
          <mxGeometry x="855" y="626.5" width="70" height="30" as="geometry" />
        </mxCell>
        <mxCell id="75GIGfru5Hww3sVHzyNu-154" value="" style="endArrow=none;html=1;rounded=0;entryX=1;entryY=1;entryDx=0;entryDy=0;exitX=0.5;exitY=0;exitDx=0;exitDy=0;" parent="1" source="75GIGfru5Hww3sVHzyNu-155" target="75GIGfru5Hww3sVHzyNu-141" edge="1">
          <mxGeometry width="50" height="50" relative="1" as="geometry">
            <mxPoint x="910" y="810" as="sourcePoint" />
            <mxPoint x="750" y="819.5" as="targetPoint" />
          </mxGeometry>
        </mxCell>
        <mxCell id="75GIGfru5Hww3sVHzyNu-155" value="" style="ellipse;whiteSpace=wrap;html=1;aspect=fixed;rotation=-45;fillColor=#050505;" parent="1" vertex="1">
          <mxGeometry x="905" y="798" width="20" height="20" as="geometry" />
        </mxCell>
        <mxCell id="75GIGfru5Hww3sVHzyNu-156" value="Titulo" style="text;html=1;align=center;verticalAlign=middle;resizable=0;points=[];autosize=1;strokeColor=none;fillColor=none;" parent="1" vertex="1">
          <mxGeometry x="925" y="798" width="50" height="30" as="geometry" />
        </mxCell>
        <mxCell id="75GIGfru5Hww3sVHzyNu-167" value="" style="endArrow=none;html=1;rounded=0;entryX=0.125;entryY=1;entryDx=0;entryDy=0;exitX=1;exitY=0.5;exitDx=0;exitDy=0;entryPerimeter=0;" parent="1" source="75GIGfru5Hww3sVHzyNu-168" target="75GIGfru5Hww3sVHzyNu-141" edge="1">
          <mxGeometry width="50" height="50" relative="1" as="geometry">
            <mxPoint x="750" y="889.5" as="sourcePoint" />
            <mxPoint x="830" y="832.5" as="targetPoint" />
          </mxGeometry>
        </mxCell>
        <mxCell id="75GIGfru5Hww3sVHzyNu-168" value="" style="ellipse;whiteSpace=wrap;html=1;aspect=fixed;rotation=-50;" parent="1" vertex="1">
          <mxGeometry x="740" y="810" width="20" height="20" as="geometry" />
        </mxCell>
        <mxCell id="75GIGfru5Hww3sVHzyNu-169" value="Nombre" style="text;html=1;align=center;verticalAlign=middle;resizable=0;points=[];autosize=1;strokeColor=none;fillColor=none;" parent="1" vertex="1">
          <mxGeometry x="690" y="828" width="70" height="30" as="geometry" />
        </mxCell>
        <mxCell id="75GIGfru5Hww3sVHzyNu-170" value="Tematicas" style="rounded=0;whiteSpace=wrap;html=1;" parent="1" vertex="1">
          <mxGeometry x="1182" y="710" width="120" height="70" as="geometry" />
        </mxCell>
        <mxCell id="75GIGfru5Hww3sVHzyNu-173" value="" style="endArrow=none;html=1;rounded=0;entryX=0.25;entryY=0;entryDx=0;entryDy=0;exitX=1;exitY=1;exitDx=0;exitDy=0;" parent="1" source="75GIGfru5Hww3sVHzyNu-174" target="75GIGfru5Hww3sVHzyNu-170" edge="1">
          <mxGeometry width="50" height="50" relative="1" as="geometry">
            <mxPoint x="1292" y="616.5" as="sourcePoint" />
            <mxPoint x="1242" y="676.5" as="targetPoint" />
          </mxGeometry>
        </mxCell>
        <mxCell id="75GIGfru5Hww3sVHzyNu-174" value="" style="ellipse;whiteSpace=wrap;html=1;aspect=fixed;rotation=15;fillColor=#000000;" parent="1" vertex="1">
          <mxGeometry x="1182" y="656.5" width="20" height="20" as="geometry" />
        </mxCell>
        <mxCell id="75GIGfru5Hww3sVHzyNu-179" value="Nombre" style="text;html=1;align=center;verticalAlign=middle;resizable=0;points=[];autosize=1;strokeColor=none;fillColor=none;" parent="1" vertex="1">
          <mxGeometry x="1157" y="626.5" width="70" height="30" as="geometry" />
        </mxCell>
        <mxCell id="75GIGfru5Hww3sVHzyNu-196" value="" style="endArrow=none;html=1;rounded=0;entryX=0.25;entryY=1;entryDx=0;entryDy=0;exitX=1;exitY=0;exitDx=0;exitDy=0;" parent="1" source="75GIGfru5Hww3sVHzyNu-197" target="75GIGfru5Hww3sVHzyNu-170" edge="1">
          <mxGeometry width="50" height="50" relative="1" as="geometry">
            <mxPoint x="1172" y="886.5" as="sourcePoint" />
            <mxPoint x="1252" y="829.5" as="targetPoint" />
          </mxGeometry>
        </mxCell>
        <mxCell id="75GIGfru5Hww3sVHzyNu-197" value="" style="ellipse;whiteSpace=wrap;html=1;aspect=fixed;rotation=-45;" parent="1" vertex="1">
          <mxGeometry x="1207" y="808.5" width="20" height="20" as="geometry" />
        </mxCell>
        <mxCell id="75GIGfru5Hww3sVHzyNu-198" value="Descripcion" style="text;html=1;align=center;verticalAlign=middle;resizable=0;points=[];autosize=1;strokeColor=none;fillColor=none;" parent="1" vertex="1">
          <mxGeometry x="1172" y="833.5" width="90" height="30" as="geometry" />
        </mxCell>
        <mxCell id="75GIGfru5Hww3sVHzyNu-202" value="Vinculos" style="rounded=0;whiteSpace=wrap;html=1;" parent="1" vertex="1">
          <mxGeometry x="170" y="1120" width="120" height="70" as="geometry" />
        </mxCell>
        <mxCell id="75GIGfru5Hww3sVHzyNu-207" value="" style="endArrow=none;html=1;rounded=0;entryX=0;entryY=0.25;entryDx=0;entryDy=0;exitX=0.875;exitY=0.283;exitDx=0;exitDy=0;exitPerimeter=0;" parent="1" source="75GIGfru5Hww3sVHzyNu-208" target="75GIGfru5Hww3sVHzyNu-202" edge="1">
          <mxGeometry width="50" height="50" relative="1" as="geometry">
            <mxPoint x="60" y="1164" as="sourcePoint" />
            <mxPoint x="130" y="1164" as="targetPoint" />
          </mxGeometry>
        </mxCell>
        <mxCell id="75GIGfru5Hww3sVHzyNu-208" value="" style="ellipse;whiteSpace=wrap;html=1;aspect=fixed;rotation=30;fillColor=#030303;" parent="1" vertex="1">
          <mxGeometry x="110" y="1120" width="20" height="20" as="geometry" />
        </mxCell>
        <mxCell id="75GIGfru5Hww3sVHzyNu-209" value="" style="endArrow=none;html=1;rounded=0;entryX=0;entryY=0.75;entryDx=0;entryDy=0;exitX=1;exitY=0.5;exitDx=0;exitDy=0;" parent="1" source="75GIGfru5Hww3sVHzyNu-210" target="75GIGfru5Hww3sVHzyNu-202" edge="1">
          <mxGeometry width="50" height="50" relative="1" as="geometry">
            <mxPoint x="80" y="1184" as="sourcePoint" />
            <mxPoint x="150" y="1184" as="targetPoint" />
          </mxGeometry>
        </mxCell>
        <mxCell id="75GIGfru5Hww3sVHzyNu-210" value="" style="ellipse;whiteSpace=wrap;html=1;aspect=fixed;fillColor=#FFFFFF;" parent="1" vertex="1">
          <mxGeometry x="100" y="1169" width="20" height="20" as="geometry" />
        </mxCell>
        <mxCell id="75GIGfru5Hww3sVHzyNu-213" value="Fecha y hora 1,1" style="text;html=1;align=center;verticalAlign=middle;resizable=0;points=[];autosize=1;strokeColor=none;fillColor=none;" parent="1" vertex="1">
          <mxGeometry x="-5" y="1110" width="110" height="30" as="geometry" />
        </mxCell>
        <mxCell id="75GIGfru5Hww3sVHzyNu-214" value="Lugar 1,1" style="text;html=1;align=center;verticalAlign=middle;resizable=0;points=[];autosize=1;strokeColor=none;fillColor=none;" parent="1" vertex="1">
          <mxGeometry x="30" y="1169" width="70" height="30" as="geometry" />
        </mxCell>
        <mxCell id="75GIGfru5Hww3sVHzyNu-215" value="" style="endArrow=none;html=1;rounded=0;entryX=0;entryY=1;entryDx=0;entryDy=0;exitX=1;exitY=0;exitDx=0;exitDy=0;" parent="1" source="75GIGfru5Hww3sVHzyNu-216" target="75GIGfru5Hww3sVHzyNu-202" edge="1">
          <mxGeometry width="50" height="50" relative="1" as="geometry">
            <mxPoint x="90" y="1230" as="sourcePoint" />
            <mxPoint x="160" y="1230" as="targetPoint" />
          </mxGeometry>
        </mxCell>
        <mxCell id="75GIGfru5Hww3sVHzyNu-216" value="" style="ellipse;whiteSpace=wrap;html=1;aspect=fixed;rotation=15;" parent="1" vertex="1">
          <mxGeometry x="125" y="1205" width="20" height="20" as="geometry" />
        </mxCell>
        <mxCell id="75GIGfru5Hww3sVHzyNu-217" value="Descripción 0,1" style="text;html=1;align=center;verticalAlign=middle;resizable=0;points=[];autosize=1;strokeColor=none;fillColor=none;" parent="1" vertex="1">
          <mxGeometry x="20" y="1205" width="110" height="30" as="geometry" />
        </mxCell>
        <mxCell id="75GIGfru5Hww3sVHzyNu-233" value="Subir" style="rhombus;whiteSpace=wrap;html=1;" parent="1" vertex="1">
          <mxGeometry x="490" y="720" width="70" height="50" as="geometry" />
        </mxCell>
        <mxCell id="75GIGfru5Hww3sVHzyNu-234" value="" style="endArrow=none;html=1;rounded=0;entryX=0;entryY=0.5;entryDx=0;entryDy=0;exitX=1;exitY=0.5;exitDx=0;exitDy=0;" parent="1" source="75GIGfru5Hww3sVHzyNu-3" target="75GIGfru5Hww3sVHzyNu-233" edge="1">
          <mxGeometry width="50" height="50" relative="1" as="geometry">
            <mxPoint x="390" y="810" as="sourcePoint" />
            <mxPoint x="440" y="760" as="targetPoint" />
          </mxGeometry>
        </mxCell>
        <mxCell id="75GIGfru5Hww3sVHzyNu-235" value="" style="endArrow=none;html=1;rounded=0;entryX=0;entryY=0.5;entryDx=0;entryDy=0;exitX=1;exitY=0.5;exitDx=0;exitDy=0;" parent="1" source="75GIGfru5Hww3sVHzyNu-233" target="75GIGfru5Hww3sVHzyNu-141" edge="1">
          <mxGeometry width="50" height="50" relative="1" as="geometry">
            <mxPoint x="630" y="850" as="sourcePoint" />
            <mxPoint x="680" y="800" as="targetPoint" />
          </mxGeometry>
        </mxCell>
        <mxCell id="75GIGfru5Hww3sVHzyNu-236" value="" style="endArrow=none;html=1;rounded=0;edgeStyle=orthogonalEdgeStyle;curved=1;" parent="1" edge="1">
          <mxGeometry width="50" height="50" relative="1" as="geometry">
            <mxPoint x="470" y="745" as="sourcePoint" />
            <mxPoint x="790" y="680" as="targetPoint" />
            <Array as="points">
              <mxPoint x="470" y="680" />
            </Array>
          </mxGeometry>
        </mxCell>
        <mxCell id="75GIGfru5Hww3sVHzyNu-238" value="" style="ellipse;whiteSpace=wrap;html=1;aspect=fixed;fillColor=#080808;rotation=60;" parent="1" vertex="1">
          <mxGeometry x="785" y="670" width="20" height="20" as="geometry" />
        </mxCell>
        <mxCell id="75GIGfru5Hww3sVHzyNu-240" value="descargar" style="rhombus;whiteSpace=wrap;html=1;" parent="1" vertex="1">
          <mxGeometry x="490" y="848" width="70" height="48" as="geometry" />
        </mxCell>
        <mxCell id="75GIGfru5Hww3sVHzyNu-242" value="compartir" style="rhombus;whiteSpace=wrap;html=1;" parent="1" vertex="1">
          <mxGeometry x="490" y="581.5" width="70" height="48" as="geometry" />
        </mxCell>
        <mxCell id="75GIGfru5Hww3sVHzyNu-243" value="" style="endArrow=none;html=1;rounded=0;entryX=0;entryY=0.5;entryDx=0;entryDy=0;exitX=1;exitY=0.5;exitDx=0;exitDy=0;" parent="1" source="75GIGfru5Hww3sVHzyNu-3" target="75GIGfru5Hww3sVHzyNu-240" edge="1">
          <mxGeometry width="50" height="50" relative="1" as="geometry">
            <mxPoint x="280" y="807" as="sourcePoint" />
            <mxPoint x="490" y="807" as="targetPoint" />
          </mxGeometry>
        </mxCell>
        <mxCell id="75GIGfru5Hww3sVHzyNu-244" value="" style="endArrow=none;html=1;rounded=0;entryX=0;entryY=0.5;entryDx=0;entryDy=0;exitX=1;exitY=0.5;exitDx=0;exitDy=0;" parent="1" source="75GIGfru5Hww3sVHzyNu-240" target="75GIGfru5Hww3sVHzyNu-141" edge="1">
          <mxGeometry width="50" height="50" relative="1" as="geometry">
            <mxPoint x="530" y="888" as="sourcePoint" />
            <mxPoint x="740" y="888" as="targetPoint" />
          </mxGeometry>
        </mxCell>
        <mxCell id="75GIGfru5Hww3sVHzyNu-245" value="" style="endArrow=none;html=1;rounded=0;entryX=0;entryY=0.5;entryDx=0;entryDy=0;exitX=1;exitY=0.5;exitDx=0;exitDy=0;" parent="1" source="75GIGfru5Hww3sVHzyNu-3" target="75GIGfru5Hww3sVHzyNu-242" edge="1">
          <mxGeometry width="50" height="50" relative="1" as="geometry">
            <mxPoint x="290" y="740" as="sourcePoint" />
            <mxPoint x="400" y="600" as="targetPoint" />
          </mxGeometry>
        </mxCell>
        <mxCell id="75GIGfru5Hww3sVHzyNu-246" value="" style="endArrow=none;html=1;rounded=0;exitX=1;exitY=0.5;exitDx=0;exitDy=0;entryX=0;entryY=0.5;entryDx=0;entryDy=0;" parent="1" source="75GIGfru5Hww3sVHzyNu-242" target="75GIGfru5Hww3sVHzyNu-141" edge="1">
          <mxGeometry width="50" height="50" relative="1" as="geometry">
            <mxPoint x="580" y="620" as="sourcePoint" />
            <mxPoint x="630" y="570" as="targetPoint" />
          </mxGeometry>
        </mxCell>
        <mxCell id="75GIGfru5Hww3sVHzyNu-248" value="Tiene" style="rhombus;whiteSpace=wrap;html=1;" parent="1" vertex="1">
          <mxGeometry x="1000" y="721" width="70" height="47" as="geometry" />
        </mxCell>
        <mxCell id="75GIGfru5Hww3sVHzyNu-249" value="" style="endArrow=none;html=1;rounded=0;entryX=0;entryY=0.5;entryDx=0;entryDy=0;exitX=1;exitY=0.5;exitDx=0;exitDy=0;" parent="1" source="75GIGfru5Hww3sVHzyNu-141" target="75GIGfru5Hww3sVHzyNu-248" edge="1">
          <mxGeometry width="50" height="50" relative="1" as="geometry">
            <mxPoint x="1000" y="850" as="sourcePoint" />
            <mxPoint x="1050" y="800" as="targetPoint" />
          </mxGeometry>
        </mxCell>
        <mxCell id="75GIGfru5Hww3sVHzyNu-250" value="" style="endArrow=none;html=1;rounded=0;entryX=0;entryY=0.5;entryDx=0;entryDy=0;exitX=1;exitY=0.5;exitDx=0;exitDy=0;" parent="1" source="75GIGfru5Hww3sVHzyNu-248" target="75GIGfru5Hww3sVHzyNu-170" edge="1">
          <mxGeometry width="50" height="50" relative="1" as="geometry">
            <mxPoint x="1220" y="800" as="sourcePoint" />
            <mxPoint x="1270" y="750" as="targetPoint" />
          </mxGeometry>
        </mxCell>
        <mxCell id="75GIGfru5Hww3sVHzyNu-251" value="Archivos" style="rounded=0;whiteSpace=wrap;html=1;" parent="1" vertex="1">
          <mxGeometry x="765" y="1135" width="120" height="70" as="geometry" />
        </mxCell>
        <mxCell id="75GIGfru5Hww3sVHzyNu-252" value="" style="endArrow=none;html=1;rounded=0;entryX=0;entryY=0.5;entryDx=0;entryDy=0;" parent="1" source="75GIGfru5Hww3sVHzyNu-253" target="75GIGfru5Hww3sVHzyNu-251" edge="1">
          <mxGeometry width="50" height="50" relative="1" as="geometry">
            <mxPoint x="700" y="1170" as="sourcePoint" />
            <mxPoint x="825" y="1101.5" as="targetPoint" />
          </mxGeometry>
        </mxCell>
        <mxCell id="75GIGfru5Hww3sVHzyNu-254" value="Nombre" style="text;html=1;align=center;verticalAlign=middle;resizable=0;points=[];autosize=1;strokeColor=none;fillColor=none;" parent="1" vertex="1">
          <mxGeometry x="630" y="1155" width="70" height="30" as="geometry" />
        </mxCell>
        <mxCell id="75GIGfru5Hww3sVHzyNu-255" value="" style="endArrow=none;html=1;rounded=0;entryX=1;entryY=0.5;entryDx=0;entryDy=0;exitX=0;exitY=0;exitDx=0;exitDy=0;" parent="1" source="75GIGfru5Hww3sVHzyNu-256" target="75GIGfru5Hww3sVHzyNu-251" edge="1">
          <mxGeometry width="50" height="50" relative="1" as="geometry">
            <mxPoint x="755" y="1311.5" as="sourcePoint" />
            <mxPoint x="835" y="1254.5" as="targetPoint" />
          </mxGeometry>
        </mxCell>
        <mxCell id="75GIGfru5Hww3sVHzyNu-256" value="" style="ellipse;whiteSpace=wrap;html=1;aspect=fixed;rotation=-45;" parent="1" vertex="1">
          <mxGeometry x="925" y="1160" width="20" height="20" as="geometry" />
        </mxCell>
        <mxCell id="75GIGfru5Hww3sVHzyNu-257" value="Descripcion" style="text;html=1;align=center;verticalAlign=middle;resizable=0;points=[];autosize=1;strokeColor=none;fillColor=none;" parent="1" vertex="1">
          <mxGeometry x="940" y="1155" width="90" height="30" as="geometry" />
        </mxCell>
        <mxCell id="75GIGfru5Hww3sVHzyNu-258" value="" style="endArrow=none;html=1;rounded=0;entryX=0;entryY=0.5;entryDx=0;entryDy=0;" parent="1" target="75GIGfru5Hww3sVHzyNu-253" edge="1">
          <mxGeometry width="50" height="50" relative="1" as="geometry">
            <mxPoint x="700" y="1170" as="sourcePoint" />
            <mxPoint x="765" y="1170" as="targetPoint" />
          </mxGeometry>
        </mxCell>
        <mxCell id="75GIGfru5Hww3sVHzyNu-253" value="" style="ellipse;whiteSpace=wrap;html=1;aspect=fixed;rotation=15;fillColor=#000000;" parent="1" vertex="1">
          <mxGeometry x="700" y="1160" width="20" height="20" as="geometry" />
        </mxCell>
        <mxCell id="75GIGfru5Hww3sVHzyNu-264" value="guarda" style="rhombus;whiteSpace=wrap;html=1;" parent="1" vertex="1">
          <mxGeometry x="790" y="930" width="70" height="50" as="geometry" />
        </mxCell>
        <mxCell id="75GIGfru5Hww3sVHzyNu-265" value="" style="endArrow=none;html=1;rounded=0;exitX=0.5;exitY=0;exitDx=0;exitDy=0;entryX=0.5;entryY=1;entryDx=0;entryDy=0;" parent="1" source="75GIGfru5Hww3sVHzyNu-264" target="75GIGfru5Hww3sVHzyNu-141" edge="1">
          <mxGeometry width="50" height="50" relative="1" as="geometry">
            <mxPoint x="780" y="930" as="sourcePoint" />
            <mxPoint x="840" y="840" as="targetPoint" />
          </mxGeometry>
        </mxCell>
        <mxCell id="75GIGfru5Hww3sVHzyNu-266" value="" style="endArrow=none;html=1;rounded=0;entryX=0.5;entryY=1;entryDx=0;entryDy=0;exitX=0.5;exitY=0;exitDx=0;exitDy=0;" parent="1" source="75GIGfru5Hww3sVHzyNu-251" target="75GIGfru5Hww3sVHzyNu-264" edge="1">
          <mxGeometry width="50" height="50" relative="1" as="geometry">
            <mxPoint x="700" y="1110" as="sourcePoint" />
            <mxPoint x="750" y="1060" as="targetPoint" />
          </mxGeometry>
        </mxCell>
        <mxCell id="75GIGfru5Hww3sVHzyNu-275" value="Comentarios" style="rounded=0;whiteSpace=wrap;html=1;" parent="1" vertex="1">
          <mxGeometry x="930" y="335" width="120" height="70" as="geometry" />
        </mxCell>
        <mxCell id="75GIGfru5Hww3sVHzyNu-276" value="" style="endArrow=none;html=1;rounded=0;entryX=0;entryY=0;entryDx=0;entryDy=0;" parent="1" source="75GIGfru5Hww3sVHzyNu-282" target="75GIGfru5Hww3sVHzyNu-275" edge="1">
          <mxGeometry width="50" height="50" relative="1" as="geometry">
            <mxPoint x="865" y="370" as="sourcePoint" />
            <mxPoint x="990" y="301.5" as="targetPoint" />
          </mxGeometry>
        </mxCell>
        <mxCell id="75GIGfru5Hww3sVHzyNu-277" value="Texto" style="text;html=1;align=center;verticalAlign=middle;resizable=0;points=[];autosize=1;strokeColor=none;fillColor=none;" parent="1" vertex="1">
          <mxGeometry x="995" y="250" width="50" height="30" as="geometry" />
        </mxCell>
        <mxCell id="75GIGfru5Hww3sVHzyNu-282" value="" style="ellipse;whiteSpace=wrap;html=1;aspect=fixed;rotation=15;fillColor=#000000;" parent="1" vertex="1">
          <mxGeometry x="920" y="280" width="20" height="20" as="geometry" />
        </mxCell>
        <mxCell id="75GIGfru5Hww3sVHzyNu-283" value="tiene2" style="rhombus;whiteSpace=wrap;html=1;" parent="1" vertex="1">
          <mxGeometry x="795" y="450" width="70" height="50" as="geometry" />
        </mxCell>
        <mxCell id="75GIGfru5Hww3sVHzyNu-284" value="" style="endArrow=none;html=1;rounded=0;exitX=1;exitY=0.5;exitDx=0;exitDy=0;edgeStyle=orthogonalEdgeStyle;curved=1;entryX=0.5;entryY=1;entryDx=0;entryDy=0;" parent="1" source="75GIGfru5Hww3sVHzyNu-283" target="75GIGfru5Hww3sVHzyNu-275" edge="1">
          <mxGeometry width="50" height="50" relative="1" as="geometry">
            <mxPoint x="860" y="480" as="sourcePoint" />
            <mxPoint x="990" y="410" as="targetPoint" />
          </mxGeometry>
        </mxCell>
        <mxCell id="75GIGfru5Hww3sVHzyNu-285" value="" style="endArrow=none;html=1;rounded=0;entryX=0.5;entryY=1;entryDx=0;entryDy=0;exitX=0.5;exitY=0;exitDx=0;exitDy=0;edgeStyle=orthogonalEdgeStyle;curved=1;" parent="1" source="75GIGfru5Hww3sVHzyNu-141" target="75GIGfru5Hww3sVHzyNu-283" edge="1">
          <mxGeometry width="50" height="50" relative="1" as="geometry">
            <mxPoint x="760" y="580" as="sourcePoint" />
            <mxPoint x="810" y="530" as="targetPoint" />
            <Array as="points">
              <mxPoint x="820" y="700" />
              <mxPoint x="830" y="700" />
            </Array>
          </mxGeometry>
        </mxCell>
        <mxCell id="75GIGfru5Hww3sVHzyNu-288" value="" style="endArrow=none;html=1;rounded=0;entryX=0.75;entryY=0;entryDx=0;entryDy=0;exitX=0;exitY=1;exitDx=0;exitDy=0;" parent="1" source="75GIGfru5Hww3sVHzyNu-289" target="75GIGfru5Hww3sVHzyNu-275" edge="1">
          <mxGeometry width="50" height="50" relative="1" as="geometry">
            <mxPoint x="1020" y="290" as="sourcePoint" />
            <mxPoint x="900" y="280" as="targetPoint" />
          </mxGeometry>
        </mxCell>
        <mxCell id="75GIGfru5Hww3sVHzyNu-289" value="" style="ellipse;whiteSpace=wrap;html=1;aspect=fixed;rotation=-45;" parent="1" vertex="1">
          <mxGeometry x="1010" y="280" width="20" height="20" as="geometry" />
        </mxCell>
        <mxCell id="75GIGfru5Hww3sVHzyNu-290" value="Fecha y horas" style="text;html=1;align=center;verticalAlign=middle;resizable=0;points=[];autosize=1;strokeColor=none;fillColor=none;" parent="1" vertex="1">
          <mxGeometry x="875" y="250" width="100" height="30" as="geometry" />
        </mxCell>
        <mxCell id="75GIGfru5Hww3sVHzyNu-291" value="Realiza" style="rhombus;whiteSpace=wrap;html=1;" parent="1" vertex="1">
          <mxGeometry x="470" y="345" width="60" height="50" as="geometry" />
        </mxCell>
        <mxCell id="75GIGfru5Hww3sVHzyNu-294" value="" style="endArrow=none;html=1;rounded=0;entryX=0;entryY=0.5;entryDx=0;entryDy=0;exitX=0.75;exitY=0;exitDx=0;exitDy=0;edgeStyle=orthogonalEdgeStyle;curved=1;" parent="1" source="75GIGfru5Hww3sVHzyNu-3" target="75GIGfru5Hww3sVHzyNu-291" edge="1">
          <mxGeometry width="50" height="50" relative="1" as="geometry">
            <mxPoint x="360" y="570" as="sourcePoint" />
            <mxPoint x="410" y="520" as="targetPoint" />
            <Array as="points">
              <mxPoint x="280" y="710" />
              <mxPoint x="280" y="370" />
            </Array>
          </mxGeometry>
        </mxCell>
        <mxCell id="75GIGfru5Hww3sVHzyNu-295" value="" style="endArrow=none;html=1;rounded=0;entryX=0;entryY=0.5;entryDx=0;entryDy=0;exitX=1;exitY=0.5;exitDx=0;exitDy=0;" parent="1" source="75GIGfru5Hww3sVHzyNu-291" target="75GIGfru5Hww3sVHzyNu-275" edge="1">
          <mxGeometry width="50" height="50" relative="1" as="geometry">
            <mxPoint x="680" y="420" as="sourcePoint" />
            <mxPoint x="730" y="370" as="targetPoint" />
          </mxGeometry>
        </mxCell>
        <mxCell id="75GIGfru5Hww3sVHzyNu-296" value="tiene3" style="rhombus;whiteSpace=wrap;html=1;" parent="1" vertex="1">
          <mxGeometry x="1181" y="335" width="60" height="55" as="geometry" />
        </mxCell>
        <mxCell id="75GIGfru5Hww3sVHzyNu-297" value="" style="endArrow=none;html=1;rounded=0;entryX=0.5;entryY=1;entryDx=0;entryDy=0;exitX=1;exitY=1;exitDx=0;exitDy=0;edgeStyle=orthogonalEdgeStyle;curved=1;" parent="1" source="75GIGfru5Hww3sVHzyNu-275" target="75GIGfru5Hww3sVHzyNu-296" edge="1">
          <mxGeometry width="50" height="50" relative="1" as="geometry">
            <mxPoint x="1020" y="500" as="sourcePoint" />
            <mxPoint x="1070" y="450" as="targetPoint" />
            <Array as="points">
              <mxPoint x="1050" y="440" />
              <mxPoint x="1211" y="440" />
            </Array>
          </mxGeometry>
        </mxCell>
        <mxCell id="75GIGfru5Hww3sVHzyNu-298" value="" style="endArrow=none;html=1;rounded=0;entryX=0.5;entryY=0;entryDx=0;entryDy=0;exitX=1;exitY=0.25;exitDx=0;exitDy=0;edgeStyle=orthogonalEdgeStyle;curved=1;" parent="1" source="75GIGfru5Hww3sVHzyNu-275" target="75GIGfru5Hww3sVHzyNu-296" edge="1">
          <mxGeometry width="50" height="50" relative="1" as="geometry">
            <mxPoint x="1140" y="340" as="sourcePoint" />
            <mxPoint x="1190" y="290" as="targetPoint" />
            <Array as="points">
              <mxPoint x="1050" y="290" />
              <mxPoint x="1211" y="290" />
            </Array>
          </mxGeometry>
        </mxCell>
        <mxCell id="75GIGfru5Hww3sVHzyNu-300" value="" style="endArrow=none;html=1;rounded=0;edgeStyle=orthogonalEdgeStyle;curved=1;entryX=0;entryY=0.5;entryDx=0;entryDy=0;" parent="1" target="75GIGfru5Hww3sVHzyNu-304" edge="1">
          <mxGeometry width="50" height="50" relative="1" as="geometry">
            <mxPoint x="440" y="370" as="sourcePoint" />
            <mxPoint x="960" y="310" as="targetPoint" />
            <Array as="points">
              <mxPoint x="440" y="310" />
            </Array>
          </mxGeometry>
        </mxCell>
        <mxCell id="75GIGfru5Hww3sVHzyNu-304" value="" style="ellipse;whiteSpace=wrap;html=1;aspect=fixed;fillColor=#000000;" parent="1" vertex="1">
          <mxGeometry x="955" y="300" width="20" height="20" as="geometry" />
        </mxCell>
        <mxCell id="75GIGfru5Hww3sVHzyNu-313" value="" style="endArrow=none;html=1;rounded=0;curved=1;entryX=0.5;entryY=1;entryDx=0;entryDy=0;" parent="1" target="75GIGfru5Hww3sVHzyNu-314" edge="1">
          <mxGeometry width="50" height="50" relative="1" as="geometry">
            <mxPoint x="339" y="1150" as="sourcePoint" />
            <mxPoint x="254" y="1140" as="targetPoint" />
          </mxGeometry>
        </mxCell>
        <mxCell id="75GIGfru5Hww3sVHzyNu-314" value="vinculado" style="rhombus;whiteSpace=wrap;html=1;" parent="1" vertex="1">
          <mxGeometry x="304" y="1060" width="70" height="40" as="geometry" />
        </mxCell>
        <mxCell id="75GIGfru5Hww3sVHzyNu-315" value="" style="endArrow=none;html=1;rounded=0;curved=1;exitX=0.5;exitY=0;exitDx=0;exitDy=0;" parent="1" source="75GIGfru5Hww3sVHzyNu-314" edge="1">
          <mxGeometry width="50" height="50" relative="1" as="geometry">
            <mxPoint x="264" y="1070" as="sourcePoint" />
            <mxPoint x="339" y="1040" as="targetPoint" />
          </mxGeometry>
        </mxCell>
        <mxCell id="75GIGfru5Hww3sVHzyNu-316" value="vincula" style="rhombus;whiteSpace=wrap;html=1;" parent="1" vertex="1">
          <mxGeometry x="260" y="940" width="60" height="40" as="geometry" />
        </mxCell>
        <mxCell id="75GIGfru5Hww3sVHzyNu-317" value="" style="endArrow=none;html=1;rounded=0;curved=1;entryX=1;entryY=1;entryDx=0;entryDy=0;exitX=0.5;exitY=0;exitDx=0;exitDy=0;" parent="1" source="75GIGfru5Hww3sVHzyNu-316" target="75GIGfru5Hww3sVHzyNu-3" edge="1">
          <mxGeometry width="50" height="50" relative="1" as="geometry">
            <mxPoint x="325" y="954" as="sourcePoint" />
            <mxPoint x="240" y="790" as="targetPoint" />
          </mxGeometry>
        </mxCell>
        <mxCell id="75GIGfru5Hww3sVHzyNu-318" value="" style="endArrow=none;html=1;rounded=0;curved=1;entryX=0.5;entryY=1;entryDx=0;entryDy=0;exitX=1;exitY=0;exitDx=0;exitDy=0;" parent="1" source="75GIGfru5Hww3sVHzyNu-202" target="75GIGfru5Hww3sVHzyNu-316" edge="1">
          <mxGeometry width="50" height="50" relative="1" as="geometry">
            <mxPoint x="405" y="1214" as="sourcePoint" />
            <mxPoint x="320" y="1050" as="targetPoint" />
          </mxGeometry>
        </mxCell>
        <mxCell id="75GIGfru5Hww3sVHzyNu-320" value="" style="endArrow=none;html=1;rounded=0;curved=1;edgeStyle=orthogonalEdgeStyle;" parent="1" edge="1">
          <mxGeometry width="50" height="50" relative="1" as="geometry">
            <mxPoint x="140" y="1150" as="sourcePoint" />
            <mxPoint x="290" y="930" as="targetPoint" />
            <Array as="points">
              <mxPoint x="140" y="930" />
            </Array>
          </mxGeometry>
        </mxCell>
        <mxCell id="75GIGfru5Hww3sVHzyNu-321" value="" style="ellipse;whiteSpace=wrap;html=1;aspect=fixed;rotation=30;fillColor=#030303;" parent="1" vertex="1">
          <mxGeometry x="130" y="1140" width="20" height="20" as="geometry" />
        </mxCell>
        <mxCell id="75GIGfru5Hww3sVHzyNu-323" value="?????" style="text;html=1;align=center;verticalAlign=middle;resizable=0;points=[];autosize=1;strokeColor=none;fillColor=none;" parent="1" vertex="1">
          <mxGeometry x="354" y="1048" width="60" height="30" as="geometry" />
        </mxCell>
        <mxCell id="75GIGfru5Hww3sVHzyNu-325" value="" style="endArrow=none;html=1;rounded=0;curved=1;entryX=0.5;entryY=1;entryDx=0;entryDy=0;edgeStyle=orthogonalEdgeStyle;exitX=0;exitY=0;exitDx=0;exitDy=0;" parent="1" source="75GIGfru5Hww3sVHzyNu-251" target="75GIGfru5Hww3sVHzyNu-326" edge="1">
          <mxGeometry width="50" height="50" relative="1" as="geometry">
            <mxPoint x="545" y="1110" as="sourcePoint" />
            <mxPoint x="460" y="1100" as="targetPoint" />
          </mxGeometry>
        </mxCell>
        <mxCell id="75GIGfru5Hww3sVHzyNu-326" value="Crea" style="rhombus;whiteSpace=wrap;html=1;" parent="1" vertex="1">
          <mxGeometry x="510" y="1020" width="70" height="40" as="geometry" />
        </mxCell>
        <mxCell id="75GIGfru5Hww3sVHzyNu-327" value="" style="endArrow=none;html=1;rounded=0;curved=1;exitX=0.5;exitY=0;exitDx=0;exitDy=0;entryX=1;entryY=0.75;entryDx=0;entryDy=0;" parent="1" source="75GIGfru5Hww3sVHzyNu-326" target="75GIGfru5Hww3sVHzyNu-3" edge="1">
          <mxGeometry width="50" height="50" relative="1" as="geometry">
            <mxPoint x="470" y="1030" as="sourcePoint" />
            <mxPoint x="545" y="1000" as="targetPoint" />
          </mxGeometry>
        </mxCell>
        <mxCell id="75GIGfru5Hww3sVHzyNu-331" value="" style="endArrow=none;html=1;rounded=0;curved=1;edgeStyle=orthogonalEdgeStyle;exitX=0.5;exitY=1;exitDx=0;exitDy=0;" parent="1" source="75GIGfru5Hww3sVHzyNu-332" edge="1">
          <mxGeometry width="50" height="50" relative="1" as="geometry">
            <mxPoint x="740" y="1160" as="sourcePoint" />
            <mxPoint x="500" y="980" as="targetPoint" />
            <Array as="points">
              <mxPoint x="740" y="1150" />
              <mxPoint x="740" y="1280" />
              <mxPoint x="500" y="1280" />
            </Array>
          </mxGeometry>
        </mxCell>
        <mxCell id="75GIGfru5Hww3sVHzyNu-332" value="" style="ellipse;whiteSpace=wrap;html=1;aspect=fixed;rotation=-15;fillColor=#000000;" parent="1" vertex="1">
          <mxGeometry x="730" y="1140" width="20" height="20" as="geometry" />
        </mxCell>
        <mxCell id="75GIGfru5Hww3sVHzyNu-334" value="1,1" style="text;html=1;align=center;verticalAlign=middle;resizable=0;points=[];autosize=1;strokeColor=none;fillColor=none;" parent="1" vertex="1">
          <mxGeometry x="880" y="715" width="40" height="30" as="geometry" />
        </mxCell>
        <mxCell id="75GIGfru5Hww3sVHzyNu-335" value="1,N" style="text;html=1;align=center;verticalAlign=middle;resizable=0;points=[];autosize=1;strokeColor=none;fillColor=none;" parent="1" vertex="1">
          <mxGeometry x="1138" y="715.5" width="40" height="30" as="geometry" />
        </mxCell>
        <mxCell id="75GIGfru5Hww3sVHzyNu-336" value="1,N" style="text;html=1;align=center;verticalAlign=middle;resizable=0;points=[];autosize=1;strokeColor=none;fillColor=none;" parent="1" vertex="1">
          <mxGeometry x="830" y="1098" width="40" height="30" as="geometry" />
        </mxCell>
        <mxCell id="75GIGfru5Hww3sVHzyNu-337" value="1,1" style="text;html=1;align=center;verticalAlign=middle;resizable=0;points=[];autosize=1;strokeColor=none;fillColor=none;" parent="1" vertex="1">
          <mxGeometry x="820" y="788" width="40" height="30" as="geometry" />
        </mxCell>
        <mxCell id="75GIGfru5Hww3sVHzyNu-338" value="0,N" style="text;html=1;align=center;verticalAlign=middle;resizable=0;points=[];autosize=1;strokeColor=none;fillColor=none;" parent="1" vertex="1">
          <mxGeometry x="370" y="718" width="40" height="30" as="geometry" />
        </mxCell>
        <mxCell id="75GIGfru5Hww3sVHzyNu-339" value="1,1" style="text;html=1;align=center;verticalAlign=middle;resizable=0;points=[];autosize=1;strokeColor=none;fillColor=none;" parent="1" vertex="1">
          <mxGeometry x="670" y="718" width="40" height="30" as="geometry" />
        </mxCell>
        <mxCell id="75GIGfru5Hww3sVHzyNu-340" value="0,N" style="text;html=1;align=center;verticalAlign=middle;resizable=0;points=[];autosize=1;strokeColor=none;fillColor=none;" parent="1" vertex="1">
          <mxGeometry x="330" y="658" width="40" height="30" as="geometry" />
        </mxCell>
        <mxCell id="75GIGfru5Hww3sVHzyNu-341" value="0,N" style="text;html=1;align=center;verticalAlign=middle;resizable=0;points=[];autosize=1;strokeColor=none;fillColor=none;" parent="1" vertex="1">
          <mxGeometry x="610" y="618" width="40" height="30" as="geometry" />
        </mxCell>
        <mxCell id="75GIGfru5Hww3sVHzyNu-342" value="0,N" style="text;html=1;align=center;verticalAlign=middle;resizable=0;points=[];autosize=1;strokeColor=none;fillColor=none;" parent="1" vertex="1">
          <mxGeometry x="405" y="800" width="40" height="30" as="geometry" />
        </mxCell>
        <mxCell id="75GIGfru5Hww3sVHzyNu-343" value="0,N" style="text;html=1;align=center;verticalAlign=middle;resizable=0;points=[];autosize=1;strokeColor=none;fillColor=none;" parent="1" vertex="1">
          <mxGeometry x="610" y="798" width="40" height="30" as="geometry" />
        </mxCell>
        <mxCell id="75GIGfru5Hww3sVHzyNu-344" value="0,N" style="text;html=1;align=center;verticalAlign=middle;resizable=0;points=[];autosize=1;strokeColor=none;fillColor=none;" parent="1" vertex="1">
          <mxGeometry x="330" y="838" width="40" height="30" as="geometry" />
        </mxCell>
        <mxCell id="75GIGfru5Hww3sVHzyNu-346" value="1,1" style="text;html=1;align=center;verticalAlign=middle;resizable=0;points=[];autosize=1;strokeColor=none;fillColor=none;" parent="1" vertex="1">
          <mxGeometry x="720" y="1078" width="40" height="30" as="geometry" />
        </mxCell>
        <mxCell id="75GIGfru5Hww3sVHzyNu-348" value="1,N" style="text;html=1;align=center;verticalAlign=middle;resizable=0;points=[];autosize=1;strokeColor=none;fillColor=none;" parent="1" vertex="1">
          <mxGeometry x="250" y="1078" width="40" height="30" as="geometry" />
        </mxCell>
        <mxCell id="75GIGfru5Hww3sVHzyNu-349" value="0,N" style="text;html=1;align=center;verticalAlign=middle;resizable=0;points=[];autosize=1;strokeColor=none;fillColor=none;" parent="1" vertex="1">
          <mxGeometry x="250" y="793" width="40" height="30" as="geometry" />
        </mxCell>
        <mxCell id="75GIGfru5Hww3sVHzyNu-350" value="0,N" style="text;html=1;align=center;verticalAlign=middle;resizable=0;points=[];autosize=1;strokeColor=none;fillColor=none;" parent="1" vertex="1">
          <mxGeometry x="240" y="608" width="40" height="30" as="geometry" />
        </mxCell>
        <mxCell id="75GIGfru5Hww3sVHzyNu-351" value="1,1" style="text;html=1;align=center;verticalAlign=middle;resizable=0;points=[];autosize=1;strokeColor=none;fillColor=none;" parent="1" vertex="1">
          <mxGeometry x="870" y="348" width="40" height="30" as="geometry" />
        </mxCell>
        <mxCell id="75GIGfru5Hww3sVHzyNu-352" value="0,N" style="text;html=1;align=center;verticalAlign=middle;resizable=0;points=[];autosize=1;strokeColor=none;fillColor=none;" parent="1" vertex="1">
          <mxGeometry x="1190" y="408" width="40" height="30" as="geometry" />
        </mxCell>
        <mxCell id="75GIGfru5Hww3sVHzyNu-353" value="0,1" style="text;html=1;align=center;verticalAlign=middle;resizable=0;points=[];autosize=1;strokeColor=none;fillColor=none;" parent="1" vertex="1">
          <mxGeometry x="1200" y="288" width="40" height="30" as="geometry" />
        </mxCell>
        <mxCell id="75GIGfru5Hww3sVHzyNu-354" value="0,1" style="text;html=1;align=center;verticalAlign=middle;resizable=0;points=[];autosize=1;strokeColor=none;fillColor=none;" parent="1" vertex="1">
          <mxGeometry x="950" y="408" width="40" height="30" as="geometry" />
        </mxCell>
        <mxCell id="75GIGfru5Hww3sVHzyNu-355" value="1,N" style="text;html=1;align=center;verticalAlign=middle;resizable=0;points=[];autosize=1;strokeColor=none;fillColor=none;" parent="1" vertex="1">
          <mxGeometry x="820" y="679.5" width="40" height="30" as="geometry" />
        </mxCell>
        <mxCell id="TSE4m4PHYhoKXWGL5z6S-139" value="Tiene" style="rhombus;whiteSpace=wrap;html=1;" vertex="1" parent="1">
          <mxGeometry x="-65" y="788" width="60" height="58" as="geometry" />
        </mxCell>
        <mxCell id="TSE4m4PHYhoKXWGL5z6S-140" value="Correo" style="rounded=0;whiteSpace=wrap;html=1;" vertex="1" parent="1">
          <mxGeometry x="-340" y="785" width="120" height="70" as="geometry" />
        </mxCell>
        <mxCell id="TSE4m4PHYhoKXWGL5z6S-142" value="" style="endArrow=none;html=1;rounded=0;entryX=0;entryY=0.5;entryDx=0;entryDy=0;exitX=1;exitY=0.5;exitDx=0;exitDy=0;" edge="1" parent="1" source="TSE4m4PHYhoKXWGL5z6S-140" target="TSE4m4PHYhoKXWGL5z6S-139">
          <mxGeometry width="50" height="50" relative="1" as="geometry">
            <mxPoint x="-230" y="899.5" as="sourcePoint" />
            <mxPoint x="-65" y="844.5" as="targetPoint" />
          </mxGeometry>
        </mxCell>
        <mxCell id="TSE4m4PHYhoKXWGL5z6S-143" value="1,N" style="text;html=1;align=center;verticalAlign=middle;resizable=0;points=[];autosize=1;strokeColor=none;fillColor=none;" vertex="1" parent="1">
          <mxGeometry x="50" y="798" width="40" height="30" as="geometry" />
        </mxCell>
        <mxCell id="TSE4m4PHYhoKXWGL5z6S-144" value="1,N" style="text;html=1;align=center;verticalAlign=middle;resizable=0;points=[];autosize=1;strokeColor=none;fillColor=none;" vertex="1" parent="1">
          <mxGeometry x="-220" y="825" width="40" height="30" as="geometry" />
        </mxCell>
        <mxCell id="TSE4m4PHYhoKXWGL5z6S-147" value="" style="endArrow=none;html=1;rounded=0;exitX=0;exitY=1;exitDx=0;exitDy=0;" edge="1" parent="1" source="TSE4m4PHYhoKXWGL5z6S-148" target="TSE4m4PHYhoKXWGL5z6S-140">
          <mxGeometry width="50" height="50" relative="1" as="geometry">
            <mxPoint x="-425" y="826.25" as="sourcePoint" />
            <mxPoint x="-435" y="786.25" as="targetPoint" />
          </mxGeometry>
        </mxCell>
        <mxCell id="TSE4m4PHYhoKXWGL5z6S-148" value="" style="ellipse;whiteSpace=wrap;html=1;aspect=fixed;rotation=-225;direction=south;" vertex="1" parent="1">
          <mxGeometry x="-410" y="810" width="20" height="20" as="geometry" />
        </mxCell>
        <mxCell id="TSE4m4PHYhoKXWGL5z6S-151" value="Direccion" style="text;html=1;align=center;verticalAlign=middle;resizable=0;points=[];autosize=1;strokeColor=none;fillColor=none;" vertex="1" parent="1">
          <mxGeometry x="100" y="843" width="70" height="30" as="geometry" />
        </mxCell>
        <mxCell id="TSE4m4PHYhoKXWGL5z6S-152" value="" style="ellipse;whiteSpace=wrap;html=1;aspect=fixed;rotation=-225;direction=south;" vertex="1" parent="1">
          <mxGeometry x="130" y="823" width="20" height="20" as="geometry" />
        </mxCell>
      </root>
    </mxGraphModel>
  </diagram>
</mxfile>
